<?xml version="1.0" encoding="utf-8"?>
<!-- Generator: Adobe Illustrator 19.2.0, SVG Export Plug-In . SVG Version: 6.00 Build 0)  -->
<!DOCTYPE svg PUBLIC "-//W3C//DTD SVG 1.1//EN" "http://www.w3.org/Graphics/SVG/1.1/DTD/svg11.dtd">
<svg version="1.1" id="レイヤー_4" xmlns="http://www.w3.org/2000/svg" xmlns:xlink="http://www.w3.org/1999/xlink" x="0px"
	 y="0px" viewBox="0 0 340.2 340.2" enable-background="new 0 0 340.2 340.2" xml:space="preserve">
<path d="M92.2,266.5l-0.5,0c-33.4-0.3-60.4-27.5-60.4-60.9c0-24,14.3-45.7,35.7-55.5c2.9-27,25.8-48,53.5-48
	c5.8,0,11.6,0.9,17.1,2.8c14-19.4,36.5-31.1,60.9-31.1c41.4,0,75.1,33.7,75.1,75.1c0,0.4,0,0.9,0,1.3c21.3,9.8,35.4,31.4,35.4,55.3
	c0,33.6-27.3,60.9-60.9,60.9L92.2,266.5z M92.2,243.8l155.9,0c21.1,0,38.2-17.2,38.2-38.3c0-17-11.4-32.2-27.8-36.8L249,166l1.4-9.8
	c0.4-2.5,0.5-5,0.5-7.4c0-28.9-23.5-52.4-52.4-52.4c-19.5,0-37.3,10.8-46.4,28.1l-5.5,10.5l-10.2-6c-4.8-2.8-10.2-4.3-15.7-4.3
	c-17.2,0-31.2,14-31.2,31.2c0,0.5,0,1,0,1.5l0.4,8.9l-8.5,2.5c-16.1,4.8-27.4,19.9-27.4,36.7c0,21,17.1,38.2,38.1,38.3H92.2z"/>
</svg>
